<?xml version="1.0" encoding="UTF-8" standalone="no"?>
<!-- Created with Inkscape (http://www.inkscape.org/) -->

<svg
   xmlns:dc="http://purl.org/dc/elements/1.1/"
   xmlns:cc="http://creativecommons.org/ns#"
   xmlns:rdf="http://www.w3.org/1999/02/22-rdf-syntax-ns#"
   xmlns:svg="http://www.w3.org/2000/svg"
   xmlns="http://www.w3.org/2000/svg"
   xmlns:sodipodi="http://sodipodi.sourceforge.net/DTD/sodipodi-0.dtd"
   xmlns:inkscape="http://www.inkscape.org/namespaces/inkscape"
   width="49.923798mm"
   height="20.48896mm"
   viewBox="0 0 49.923798 20.48896"
   version="1.1"
   id="svg895"
   inkscape:version="0.92.4 5da689c313, 2019-01-14"
   sodipodi:docname="settle.svg">
  <defs
     id="defs889">
    <inkscape:path-effect
       effect="perspective-envelope"
       up_left_point="-665.69141,334.06007"
       up_right_point="-607.60742,334.06007"
       down_left_point="-665.69141,392.17969"
       down_right_point="-607.60742,392.17969"
       id="path-effect1675"
       is_visible="true"
       deform_type="perspective"
       horizontal_mirror="false"
       vertical_mirror="false"
       overflow_perspective="false" />
    <inkscape:path-effect
       effect="bend_path"
       id="path-effect1673"
       is_visible="true"
       bendpath="m -665.69141,363.11988 h 58.08399"
       prop_scale="0.90593471"
       scale_y_rel="false"
       vertical="false" />
  </defs>
  <sodipodi:namedview
     id="base"
     pagecolor="#ffffff"
     bordercolor="#666666"
     borderopacity="1.0"
     inkscape:pageopacity="0.0"
     inkscape:pageshadow="2"
     inkscape:zoom="1.4142136"
     inkscape:cx="-16.017223"
     inkscape:cy="-51.231966"
     inkscape:document-units="mm"
     inkscape:current-layer="layer1"
     showgrid="false"
     inkscape:snap-global="false"
     inkscape:snap-object-midpoints="false"
     inkscape:snap-page="false"
     inkscape:snap-bbox="true"
     inkscape:snap-bbox-edge-midpoints="false"
     inkscape:bbox-paths="true"
     showguides="false"
     fit-margin-top="0"
     fit-margin-left="0"
     fit-margin-right="0"
     fit-margin-bottom="0"
     inkscape:window-width="1366"
     inkscape:window-height="712"
     inkscape:window-x="0"
     inkscape:window-y="28"
     inkscape:window-maximized="1" />
  <metadata
     id="metadata892">
    <rdf:RDF>
      <cc:Work
         rdf:about="">
        <dc:format>image/svg+xml</dc:format>
        <dc:type
           rdf:resource="http://purl.org/dc/dcmitype/StillImage" />
        <dc:title></dc:title>
      </cc:Work>
    </rdf:RDF>
  </metadata>
  <g
     inkscape:label="Capa 1"
     inkscape:groupmode="layer"
     id="layer1"
     transform="translate(249.56184,-155.20116)">
    <rect
       style="fill:#2b2b2b;fill-opacity:1;stroke:none;stroke-width:0.03507981;stroke-miterlimit:4;stroke-dasharray:none;stroke-dashoffset:0;stroke-opacity:1;paint-order:fill markers stroke"
       id="rect1790"
       width="49.923798"
       height="20.48896"
       x="-249.56184"
       y="155.20116" />
    <path
       inkscape:connector-curvature="0"
       id="path1459"
       style="font-style:normal;font-variant:normal;font-weight:bold;font-stretch:normal;font-size:40px;line-height:1.25;font-family:'Source Code Pro';-inkscape-font-specification:'Source Code Pro Bold';text-align:center;letter-spacing:4.6400032px;word-spacing:0px;text-anchor:middle;fill:#eaeaea;fill-opacity:1;stroke:none;stroke-width:0.26458332"
       d="m -242.7914,172.95161 c 1.68275,0 2.58233,-0.74084 2.58233,-1.69334 0,-0.85725 -0.4445,-1.31233 -2.06375,-1.68275 -0.88899,-0.20108 -1.21708,-0.26458 -1.21708,-0.56091 0,-0.24342 0.24342,-0.41275 0.73025,-0.41275 0.58208,0 1.18533,0.17991 1.7145,0.49741 l 0.6985,-0.93133 c -0.55033,-0.34925 -1.3335,-0.71967 -2.27542,-0.71967 -1.49224,0 -2.41299,0.66675 -2.41299,1.64042 0,0.81492 0.5715,1.3335 2.00025,1.64042 1.02658,0.22225 1.29116,0.32808 1.29116,0.62441 0,0.254 -0.26458,0.4445 -0.83608,0.4445 -0.75142,0 -1.47108,-0.22225 -2.11667,-0.62441 l -0.66675,0.97366 c 0.66675,0.4445 1.62984,0.80434 2.57175,0.80434 z" />
    <path
       inkscape:connector-curvature="0"
       id="path1465"
       style="font-style:normal;font-variant:normal;font-weight:bold;font-stretch:normal;font-size:40px;line-height:1.25;font-family:'Source Code Pro';-inkscape-font-specification:'Source Code Pro Bold';text-align:center;letter-spacing:4.6400032px;word-spacing:0px;text-anchor:middle;fill:#eaeaea;fill-opacity:1;stroke:none;stroke-width:0.26458332"
       d="m -219.08478,172.95161 c 0.6985,0 1.24884,-0.14817 1.7145,-0.28575 l -0.27516,-1.12184 c -0.3175,0.10584 -0.64559,0.1905 -1.03717,0.1905 -0.77258,0 -1.11125,-0.30691 -1.11125,-1.10066 v -1.8415 h 2.2225 v -1.21709 h -2.2225 v -1.60866 h -1.28058 l -0.20109,1.60866 -1.397,0.0635 v 1.15359 h 1.32292 v 1.85208 c 0,1.37583 0.59267,2.30717 2.26483,2.30717 z" />
    <path
       inkscape:connector-curvature="0"
       id="path1467"
       style="font-style:normal;font-variant:normal;font-weight:bold;font-stretch:normal;font-size:40px;line-height:1.25;font-family:'Source Code Pro';-inkscape-font-specification:'Source Code Pro Bold';text-align:center;letter-spacing:4.6400032px;word-spacing:0px;text-anchor:middle;fill:#eaeaea;fill-opacity:1;stroke:none;stroke-width:0.26458332"
       d="m -211.43304,172.95161 c 0.65616,0 1.02658,-0.10584 1.57691,-0.28575 l -0.34925,-1.143 c -0.3175,0.127 -0.5715,0.16933 -0.81491,0.16933 -0.4445,0 -0.85725,-0.21167 -0.85725,-0.85725 v -5.42925 h -3.20675 v 1.22767 h 1.651 v 4.13808 c 0,1.3335 0.68791,2.18017 2.00025,2.18017 z" />
    <path
       inkscape:connector-curvature="0"
       id="path1469"
       style="font-style:normal;font-variant:normal;font-weight:bold;font-stretch:normal;font-size:40px;line-height:1.25;font-family:'Source Code Pro';-inkscape-font-specification:'Source Code Pro Bold';text-align:center;letter-spacing:4.6400032px;word-spacing:0px;text-anchor:middle;fill:#eaeaea;fill-opacity:1;stroke:none;stroke-width:0.26458332"
       d="m -204.54331,172.95161 c 0.6985,0 1.48167,-0.23284 2.08492,-0.61384 l -0.51859,-0.94191 c -0.46566,0.24341 -0.87841,0.37041 -1.35466,0.37041 -0.85725,0 -1.41817,-0.33866 -1.56634,-1.10066 h 3.57717 c 0.0212,-0.127 0.0741,-0.41275 0.0741,-0.6985 0,-1.42875 -0.85725,-2.51884 -2.4765,-2.51884 -1.40758,0 -2.7305,1.02659 -2.7305,2.75167 0,1.74625 1.27,2.75167 2.91042,2.75167 z m -0.127,-4.318 c 0.60325,0 0.96308,0.33866 1.03717,0.98425 h -2.24367 c 0.15875,-0.65617 0.59267,-0.98425 1.2065,-0.98425 z" />
    <g
       id="g1899"
       style="fill:#f6af2f;fill-opacity:1">
      <g
         style="fill:#f6af2f;fill-opacity:1"
         id="g30"
         transform="matrix(-0.03477362,0,0,0.03477362,-221.10039,156.43212)">
        <path
           id="path20"
           d="m 119.401,512 c -2.56,0 -4.267,-0.853 -5.973,-2.56 -3.413,-3.413 -2.56,-8.533 0.853,-11.947 l 77.653,-69.973 -77.653,-62.293 c -2.56,-1.707 -3.413,-4.267 -3.413,-6.827 0,-2.56 0.853,-5.12 3.413,-6.827 l 76.8,-61.44 -76.8,-61.44 c -2.56,-1.707 -3.413,-4.267 -3.413,-6.827 0,-2.56 0.853,-5.12 3.413,-6.827 l 85.333,-68.267 c 3.413,-2.56 9.387,-2.56 11.947,1.707 2.56,3.413 2.56,9.387 -1.707,11.947 l -76.8,61.44 75.947,61.44 c 1.707,1.707 3.413,4.267 3.413,6.827 0,2.56 -0.853,5.12 -3.413,6.827 l -75.947,61.44 75.947,61.44 c 1.707,1.707 3.413,4.267 3.413,6.827 0,2.56 -0.853,5.12 -2.56,6.827 l -84.48,76.8 c -1.707,0.853 -4.267,1.706 -5.973,1.706"
           style="fill:#f6af2f;fill-opacity:1"
           inkscape:connector-curvature="0" />
        <path
           id="path22"
           d="m 204.734,512 c -1.707,0 -4.267,-0.853 -5.973,-2.56 l -85.333,-76.8 c -1.707,-1.707 -2.56,-3.413 -2.56,-5.973 0,-2.56 0.853,-5.12 3.413,-6.827 l 76.8,-61.44 -76.8,-61.44 c -2.56,-1.707 -3.413,-4.267 -3.413,-6.827 0,-2.56 0.853,-5.12 3.413,-6.827 l 76.8,-61.44 -76.8,-61.44 c -3.413,-2.56 -4.267,-8.533 -1.707,-11.947 2.56,-3.413 8.533,-4.267 11.947,-1.707 l 84.48,68.267 c 1.707,1.707 3.413,4.267 3.413,6.827 0,2.56 -0.853,5.12 -3.413,6.827 l -75.947,61.44 75.947,61.44 c 1.707,1.707 3.413,4.267 3.413,6.827 0,2.56 -0.853,5.12 -3.413,6.827 l -75.947,61.44 77.653,69.973 c 3.413,3.413 3.413,8.533 0.853,11.947 -1.706,2.56 -4.266,3.413 -6.826,3.413"
           style="fill:#f6af2f;fill-opacity:1"
           inkscape:connector-curvature="0" />
        <path
           id="path24"
           d="m 119.401,162.133 c -2.56,0 -5.12,-0.853 -6.827,-3.413 -2.56,-4.267 -1.707,-9.387 1.707,-11.947 L 199.614,87.04 c 4.267,-2.56 9.387,-1.707 11.947,1.707 2.56,4.267 1.707,9.387 -1.707,11.947 l -85.333,59.733 c -1.707,0.853 -3.414,1.706 -5.12,1.706"
           style="fill:#f6af2f;fill-opacity:1"
           inkscape:connector-curvature="0" />
        <path
           id="path26"
           d="m 204.734,162.133 c -1.707,0 -3.413,-0.853 -5.12,-1.707 l -85.333,-59.733 c -4.267,-2.56 -5.12,-7.68 -1.707,-11.947 2.56,-4.267 7.68,-5.12 11.947,-1.707 l 85.333,59.733 c 4.267,2.56 5.12,7.68 1.707,11.947 -1.707,2.561 -4.267,3.414 -6.827,3.414"
           style="fill:#f6af2f;fill-opacity:1"
           inkscape:connector-curvature="0" />
        <path
           sodipodi:nodetypes="cccccsssssscccs"
           id="path28"
           d="M 213.267,140.23205 H 481.214 L 447.081,102.4 H 213.267 Z m 281.6,17.066 H 204.734 c -5.12,0 -8.533,-3.413 -8.533,-8.533 V 93.867 c 0,-5.12 3.413,-8.533 8.533,-8.533 h 247.467 c 3.413,0 5.973,1.707 7.68,5.12 l 42.667,54.89805 c 1.707,2.56 0.853,5.973 0,8.533 -1.707,1.707 -5.121,3.413 -7.681,3.413 z"
           style="fill:#f6af2f;fill-opacity:1"
           inkscape:connector-curvature="0" />
      </g>
      <g
         transform="matrix(0.67415992,0,0,0.67415992,-64.15786,94.714228)"
         id="g1685"
         style="fill:#f6af2f;fill-opacity:1">
        <g
           transform="matrix(-0.03477362,0,0,0.03477362,-220.30664,97.959203)"
           id="g6"
           style="fill:#f6af2f;fill-opacity:1">
          <path
             inkscape:connector-curvature="0"
             style="fill:#f6af2f;fill-opacity:1"
             d="m 950.6786,184.32331 c -5.12,0 -8.533,-3.413 -8.533,-8.533 v -25.6 c 0,-5.12 3.413,-8.533 8.533,-8.533 5.12,0 8.533,3.413 8.533,8.533 v 25.6 c 10e-4,5.12 -3.413,8.533 -8.533,8.533"
             id="path2" />
          <path
             inkscape:connector-curvature="0"
             style="fill:#f6af2f;fill-opacity:1"
             d="m 950.6786,235.52331 c -18.773,0 -34.133,-15.36 -34.133,-34.133 0,-5.12 3.413,-8.533 8.533,-8.533 5.12,0 8.533,3.413 8.533,8.533 0,9.387 7.68,17.067 17.067,17.067 9.387,0 17.067,-7.68 17.067,-17.067 0,-9.387 -7.68,-17.067 -17.067,-17.067 -5.12,0 -8.533,-3.413 -8.533,-8.533 0,-5.12 3.413,-8.533 8.533,-8.533 18.773,0 34.133,15.36 34.133,34.133 10e-4,18.773 -15.359,34.133 -34.133,34.133"
             id="path4" />
        </g>
        <path
           inkscape:connector-curvature="0"
           style="fill:#f6af2f;fill-opacity:1;stroke-width:0.03477362"
           d="m -253.95866,103.18186 h 1.18693 v -0.35608 c 0,-0.53412 -0.2077,-1.03858 -0.59348,-1.42433 -0.38575,0.38575 -0.59348,0.89021 -0.59348,1.42433 v 0.35608 z"
           id="path8" />
        <path
           inkscape:connector-curvature="0"
           style="fill:#f6af2f;fill-opacity:1;stroke-width:0.0267101"
           d="m -253.36518,101.69818 c 0.17804,0 0.29673,-0.07 0.29673,-0.17507 v -2.10087 c 0,-0.10505 -0.11869,-0.17507 -0.29673,-0.17507 -0.17804,0 -0.29672,0.07 -0.29672,0.17507 v 2.10087 c -3e-5,0.10505 0.11868,0.17507 0.29672,0.17507"
           id="path10" />
      </g>
      <g
         style="fill:#f6af2f;fill-opacity:1"
         id="g16"
         transform="matrix(-0.03477362,0,0,0.03477362,-221.10039,156.43212)">
        <path
           id="path12"
           d="m 127.934,494.933 h 68.267 V 95.573 l -25.6,-78.507 h -16.213 l -26.453,78.507 v 399.36 z m 76.8,17.067 h -85.333 c -5.12,0 -8.533,-3.413 -8.533,-8.533 v -409.6 c 0,-0.853 0,-1.707 0.853,-2.56 L 139.881,5.974 C 140.734,2.56 144.147,0 147.561,0 h 28.16 c 3.413,0 6.827,2.56 7.68,5.973 l 28.16,85.333 c 0,0.853 0.853,1.707 0.853,2.56 v 409.6 c 0.853,5.121 -2.56,8.534 -7.68,8.534 z"
           style="fill:#f6af2f;fill-opacity:1"
           inkscape:connector-curvature="0" />
        <path
           sodipodi:nodetypes="cccccssssssscs"
           id="path14"
           d="m 93.801,140.23205 h 17.067 V 102.4 H 93.801 Z m 25.6,17.066 H 85.267 c -5.12,0 -8.533,-3.413 -8.533,-8.533 V 93.867 c 0,-5.12 3.413,-8.533 8.533,-8.533 H 119.4 c 5.12,0 8.533,3.413 8.533,8.533 v 54.89805 c 10e-4,5.12 -3.412,8.533 -8.532,8.533 z"
           style="fill:#f6af2f;fill-opacity:1"
           inkscape:connector-curvature="0" />
      </g>
      <g
         style="fill:#f6af2f;fill-opacity:1"
         id="g40"
         transform="matrix(-0.03477362,0,0,0.02290252,-221.04718,157.49141)">
        <path
           id="path34"
           d="m 418.067,187.733 c -2.56,0 -5.12,-0.853 -6.827,-3.413 l -61.44,-76.8 -61.44,76.8 c -3.413,4.267 -10.24,4.267 -13.653,0 L 206.44,98.987 c -2.56,-3.413 -2.56,-9.387 1.707,-11.947 3.413,-2.56 9.387,-2.56 11.947,1.707 l 61.44,76.8 61.44,-76.8 c 3.413,-4.267 10.24,-4.267 13.653,0 l 68.267,85.333 c 2.56,3.413 2.56,9.387 -1.707,11.947 -0.853,0.853 -3.413,1.706 -5.12,1.706"
           style="fill:#f6af2f;fill-opacity:1"
           inkscape:connector-curvature="0" />
        <path
           id="path36"
           d="m 213.267,187.733 c -1.707,0 -3.413,-0.853 -5.12,-1.707 -3.413,-2.56 -4.267,-8.533 -1.707,-11.947 l 68.267,-85.333 c 3.413,-4.267 10.24,-4.267 13.653,0 l 61.44,76.8 61.44,-76.8 c 2.56,-3.413 8.533,-4.267 11.947,-1.707 3.413,2.56 4.267,8.533 1.707,11.947 l -68.267,85.333 c -3.413,4.267 -10.24,4.267 -13.653,0 l -61.44,-76.8 -61.44,76.8 c -1.707,2.561 -4.267,3.414 -6.827,3.414"
           style="fill:#f6af2f;fill-opacity:1"
           inkscape:connector-curvature="0" />
        <path
           id="path38"
           d="m 418.067,187.733 c -1.707,0 -4.267,-0.853 -5.12,-1.707 -3.413,-3.413 -4.267,-8.533 -0.853,-11.947 l 47.787,-57.173 c 3.413,-3.413 8.533,-4.267 11.947,-0.853 3.413,3.413 4.267,8.533 0.853,11.947 l -47.787,57.173 c -1.707,1.707 -4.267,2.56 -6.827,2.56"
           style="fill:#f6af2f;fill-opacity:1"
           inkscape:connector-curvature="0" />
      </g>
      <path
         id="path42"
         d="m -231.78056,174.23622 h 8.60533 c 0.17804,0 0.29672,-0.11869 0.29672,-0.29673 0,-0.17804 -0.11868,-0.29672 -0.29672,-0.29672 h -8.60533 c -0.17804,0 -0.29672,0.11868 -0.29672,0.29672 0,0.17804 0.11868,0.29673 0.29672,0.29673"
         style="fill:#f6af2f;fill-opacity:1;stroke-width:0.03477362"
         inkscape:connector-curvature="0" />
      <path
         style="color:#000000;font-style:normal;font-variant:normal;font-weight:normal;font-stretch:normal;font-size:medium;line-height:normal;font-family:sans-serif;font-variant-ligatures:normal;font-variant-position:normal;font-variant-caps:normal;font-variant-numeric:normal;font-variant-alternates:normal;font-feature-settings:normal;text-indent:0;text-align:start;text-decoration:none;text-decoration-line:none;text-decoration-style:solid;text-decoration-color:#000000;letter-spacing:normal;word-spacing:normal;text-transform:none;writing-mode:lr-tb;direction:ltr;text-orientation:mixed;dominant-baseline:auto;baseline-shift:baseline;text-anchor:start;white-space:normal;shape-padding:0;clip-rule:nonzero;display:inline;overflow:visible;visibility:visible;opacity:1;isolation:auto;mix-blend-mode:normal;color-interpolation:sRGB;color-interpolation-filters:linearRGB;solid-color:#000000;solid-opacity:1;vector-effect:none;fill:#f6af2f;fill-opacity:1;fill-rule:nonzero;stroke:none;stroke-width:0.04;stroke-linecap:butt;stroke-linejoin:miter;stroke-miterlimit:4;stroke-dasharray:none;stroke-dashoffset:0;stroke-opacity:1;color-rendering:auto;image-rendering:auto;shape-rendering:auto;text-rendering:auto;enable-background:accumulate"
         d="m -234.5144,165.64655 -0.0644,0.0565 2.71739,3.11659 0.0644,-0.0565 z"
         id="path1761"
         inkscape:connector-curvature="0"
         sodipodi:nodetypes="ccccc" />
      <path
         style="color:#000000;font-style:normal;font-variant:normal;font-weight:normal;font-stretch:normal;font-size:medium;line-height:normal;font-family:sans-serif;font-variant-ligatures:normal;font-variant-position:normal;font-variant-caps:normal;font-variant-numeric:normal;font-variant-alternates:normal;font-feature-settings:normal;text-indent:0;text-align:start;text-decoration:none;text-decoration-line:none;text-decoration-style:solid;text-decoration-color:#000000;letter-spacing:normal;word-spacing:normal;text-transform:none;writing-mode:lr-tb;direction:ltr;text-orientation:mixed;dominant-baseline:auto;baseline-shift:baseline;text-anchor:start;white-space:normal;shape-padding:0;clip-rule:nonzero;display:inline;overflow:visible;visibility:visible;opacity:1;isolation:auto;mix-blend-mode:normal;color-interpolation:sRGB;color-interpolation-filters:linearRGB;solid-color:#000000;solid-opacity:1;vector-effect:none;fill:#f6af2f;fill-opacity:1;fill-rule:nonzero;stroke:none;stroke-width:0.04;stroke-linecap:butt;stroke-linejoin:miter;stroke-miterlimit:4;stroke-dasharray:none;stroke-dashoffset:0;stroke-opacity:1;color-rendering:auto;image-rendering:auto;shape-rendering:auto;text-rendering:auto;enable-background:accumulate"
         d="m -235.20466,165.80963 -1.22465,0.96868 0.0693,0.0575 1.2227,-0.96673 z"
         id="path1763"
         inkscape:connector-curvature="0"
         sodipodi:nodetypes="ccccc" />
    </g>
    <path
       inkscape:connector-curvature="0"
       id="path1461"
       style="font-style:normal;font-variant:normal;font-weight:bold;font-stretch:normal;font-size:40px;line-height:1.25;font-family:'Source Code Pro';-inkscape-font-specification:'Source Code Pro Bold';text-align:center;letter-spacing:4.6400032px;word-spacing:0px;text-anchor:middle;fill:#eaeaea;fill-opacity:1;stroke:none;stroke-width:0.26458332"
       d="m -232.68644,170.74053 c 0.45514,-0.52986 0.78883,-1.27565 0.89289,-1.98151 l -1.0524,-0.22038 c -0.11879,0.51185 -0.2914,0.9077 -0.60173,1.26896 -0.55858,0.65028 -1.18097,0.85509 -1.85554,0.47097 l 2.33089,-2.71351 c -0.0825,-0.0988 -0.26481,-0.32515 -0.48157,-0.51135 -1.0838,-0.93097 -2.46928,-0.991 -3.52439,0.2373 -0.91718,1.06774 -1.00046,2.74018 0.30812,3.86425 1.32464,1.13785 2.91484,0.82961 3.98374,-0.41475 z m -3.35823,-2.71728 c 0.39308,-0.4576 0.88444,-0.50988 1.42243,-0.14541 l -1.46197,1.70196 c -0.3943,-0.54799 -0.36043,-1.09091 0.0395,-1.55655 z" />
  </g>
</svg>
